Coordinates
version=1
nRows=49
nColumns=12
inDegrees=yes

Units are S.I. units (second, meters, Newtons, ...)
Angles are in degrees

endheader
time	SC_y	SC_z	SC_x	AC_y	AC_z	AC_x	GH_y	GH_z	GH_yy	EL_x	PS_y
       0.0              -24.45          1.008          31.78          43.15         -7.271         -10.53          168.0          89.14          35.96          81.41          117.5
   0.01008              -24.44          1.011          31.79          43.15         -7.272         -10.52          168.0          89.13          35.95          81.41          117.5
   0.02016              -24.44          1.015          31.79          43.15         -7.273         -10.52          168.0          89.11          35.94          81.42          117.4
   0.03024              -24.44          1.018           31.8          43.15         -7.274         -10.52          167.9           89.1          35.92          81.43          117.4
   0.04031              -24.44          1.022          31.81          43.15         -7.275         -10.52          167.9          89.09          35.91          81.44          117.4
   0.05039              -24.43          1.026          31.81          43.15         -7.277         -10.51          167.9          89.07          35.89          81.45          117.4
   0.06047              -24.43           1.03          31.82          43.15         -7.278         -10.51          167.9          89.05          35.88          81.46          117.4
   0.07055              -24.43          1.035          31.83          43.15          -7.28         -10.51          167.9          89.03          35.86          81.47          117.4
   0.08063              -24.43           1.04          31.84          43.16         -7.281          -10.5          167.9          89.02          35.84          81.48          117.4
   0.09071              -24.42          1.045          31.85          43.16         -7.283          -10.5          167.9          88.99          35.82           81.5          117.3
    0.1008              -24.42          1.051          31.86          43.16         -7.285         -10.49          167.9          88.97           35.8          81.51          117.3
    0.1109              -24.42          1.057          31.87          43.16         -7.287         -10.49          167.9          88.95          35.77          81.52          117.3
    0.1209              -24.41          1.063          31.88          43.17         -7.289         -10.49          167.8          88.92          35.75          81.54          117.3
     0.131              -24.41          1.071           31.9          43.17         -7.291         -10.48          167.8          88.89          35.72          81.56          117.2
    0.1411               -24.4          1.078          31.91          43.17         -7.294         -10.47          167.8          88.86          35.69          81.57          117.2
    0.1512               -24.4          1.087          31.93          43.17         -7.297         -10.47          167.8          88.83          35.66          81.59          117.2
    0.1613              -24.39          1.096          31.94          43.18           -7.3         -10.46          167.8          88.79          35.62          81.62          117.1
    0.1713              -24.39          1.106          31.96          43.18         -7.303         -10.45          167.7          88.76          35.59          81.64          117.1
    0.1814              -24.38          1.116          31.98          43.18         -7.307         -10.45          167.7          88.71          35.54          81.67          117.1
    0.1915              -24.37          1.128           32.0          43.19         -7.311         -10.44          167.7          88.67           35.5          81.69          117.0
    0.2016              -24.37          1.141          32.03          43.19         -7.315         -10.43          167.7          88.61          35.45          81.72          117.0
    0.2116              -24.36          1.156          32.06           43.2          -7.32         -10.42          167.6          88.56          35.39          81.76          116.9
    0.2217              -24.35          1.171          32.09           43.2         -7.325         -10.41          167.6           88.5          35.33           81.8          116.9
    0.2318              -24.34          1.189          32.12          43.21         -7.331         -10.39          167.5          88.43          35.27          81.84          116.8
    0.2419              -24.33          1.208          32.15          43.22         -7.337         -10.38          167.5          88.35          35.19          81.88          116.7
     0.252              -24.31           1.23           32.2          43.23         -7.344         -10.36          167.4          88.26          35.11          81.94          116.6
     0.262               -24.3          1.254          32.24          43.24         -7.352         -10.34          167.4          88.17          35.01          81.99          116.5
    0.2721              -24.28          1.282          32.29          43.25         -7.361         -10.32          167.3          88.06          34.91          82.06          116.4
    0.2822              -24.26          1.313          32.35          43.26         -7.372          -10.3          167.2          87.94          34.79          82.13          116.3
    0.2923              -24.24          1.348          32.42          43.27         -7.383         -10.27          167.2           87.8          34.65          82.22          116.2
    0.3024              -24.22          1.388          32.49          43.28         -7.396         -10.24          167.1          87.64           34.5          82.31          116.0
    0.3124              -24.19          1.434          32.58           43.3         -7.412         -10.21          167.0          87.46          34.32          82.42          115.9
    0.3225              -24.16          1.487          32.68          43.32         -7.429         -10.17          166.8          87.25          34.12          82.55          115.7
    0.3326              -24.12          1.549          32.79          43.34          -7.45         -10.13          166.7          87.01          33.88          82.69          115.4
    0.3427              -24.08          1.621          32.93          43.37         -7.474         -10.07          166.5          86.72           33.6          82.86          115.1
    0.3527              -24.03          1.706          33.09           43.4         -7.502         -10.01          166.3          86.39          33.28          83.07          114.8
    0.3628              -23.97          1.807          33.27          43.44         -7.535         -9.934          166.1          85.99          32.89          83.31          114.4
    0.3729               -23.9          1.928           33.5          43.48         -7.575         -9.844          165.8          85.51          32.42           83.6          114.0
     0.383              -23.81          2.075          33.78          43.53         -7.624         -9.735          165.4          84.93          31.86          83.95          113.4
    0.3931               -23.7          2.254          34.11           43.6         -7.683         -9.602          165.0          84.22          31.17          84.37          112.7
    0.4031              -23.57          2.475          34.52          43.68         -7.756         -9.438          164.5          83.35          30.32           84.9          111.9
    0.4132              -23.41          2.751          35.04          43.78         -7.847         -9.234          163.8          82.26          29.25          85.55          110.9
    0.4233               -23.2          3.098          35.69          43.91         -7.962         -8.976          163.0          80.89          27.92          86.38          109.5
    0.4334              -22.94          3.539          36.51          44.07         -8.108         -8.649          162.0          79.15          26.22          87.43          107.9
    0.4434               -22.6          4.104          37.57          44.28         -8.295         -8.229          160.6          76.92          24.04          88.77          105.7
    0.4535              -22.17          4.829          38.93          44.54         -8.535         -7.691          158.9          74.06          21.25           90.5          103.0
    0.4636              -21.62          5.756          40.66          44.88         -8.842         -7.004          156.7          70.41          17.69           92.7          99.46
    0.4737              -20.93           6.92          42.84          45.31         -9.227          -6.14          154.0          65.81           13.2          95.47          95.04
    0.4838              -20.08          8.339          45.49          45.82         -9.697         -5.088          150.6          60.21          7.739          98.85          89.66
